# ProBuilder 5.0.7
# https://unity3d.com/unity/features/worldbuilding/probuilder
# 11/4/2023 6:10:49 PM

mtllib ./River_Collider.mtl
o River Collider

g River Collider
v 7.425516E-10 2.85 4.031044E-09
v -9.002628 2.85 4.861418
v -16.74489 2.85 15.30447
v -20.51614 2.85 17.28234
v -24.99784 2.85 20.13052
v -34.75014 2.85 27.36794
v -47.71392 2.85 31.41913
v -65.38033 2.85 37.79192
v -77.86858 2.85 38.84266
v -85.61497 2.85 42.49229
v -90.29636 2.85 51.22485
v -92.18694 2.85 60.49755
v -92.81711 2.85 63.91855
v -94.43759 2.85 74.18154
v -87.23549 2.85 72.38102
v -85.43495 2.85 67.15949
v -66.61946 2.85 51.22485
v -58.87717 2.85 42.31219
v -48.34409 2.85 37.72085
v -35.47033 2.85 36.01035
v -21.75707 2.85 29.05098
v -24.74724 2.850001 20.80623
v -20.37875 2.85 18.40898
v -17.64837 2.85 25.33127
v 0.1800442 2.85 23.13656
v 0.2700853 2.85 17.01475
v -10.17296 2.85 17.82498
v -6.84199 2.85 11.79322
v 0.4501381 2.85 8.192171
v -10.17296 0 17.82498
v 0.2700853 0 17.01475
v 0.1800442 0 23.13656
v -17.64837 0 25.33127
v -94.43759 0 74.18154
v -92.81711 0 63.91855
v -87.23549 0 72.38102
v -85.43495 0 67.15949
v -92.18694 0 60.49755
v -90.29636 0 51.22485
v -66.61946 0 51.22485
v -85.61497 0 42.49229
v -77.86858 0 38.84266
v -65.38033 0 37.79192
v -58.87717 0 42.31219
v -47.71392 0 31.41913
v -48.34409 0 37.72085
v -35.47033 0 36.01035
v -34.75014 0 27.36794
v -21.75707 0 29.05098
v -24.74724 6.426377E-07 20.80623
v -24.99784 0 20.13052
v -20.37875 1.285275E-07 18.40898
v -20.51614 1.285275E-07 17.28234
v -16.74489 0 15.30447
v -6.84199 0 11.79322
v -9.002628 0 4.861418
v 0 0 0
v 0.4501381 0 8.192171

vt 2.624504E-10 -1.440148E-09
vt 9.002628 4.861418
vt 16.74489 15.30447
vt 20.51614 17.28234
vt 24.99784 20.13052
vt 34.75014 27.36794
vt 47.71392 31.41913
vt 65.38033 37.79192
vt 77.86858 38.84266
vt 85.61497 42.49229
vt 90.29636 51.22485
vt 92.18694 60.49755
vt 92.81711 63.91855
vt 94.43759 74.18154
vt 87.23549 72.38102
vt 85.43495 67.15949
vt 66.61946 51.22485
vt 58.87717 42.31219
vt 48.34409 37.72085
vt 35.47033 36.01035
vt 21.75707 29.05098
vt 24.74724 20.80623
vt 20.37875 18.40898
vt 17.64837 25.33127
vt -0.1800442 23.13656
vt -0.2700853 17.01475
vt 10.17296 17.82498
vt 6.84199 11.79322
vt -0.4501381 8.192171
vt -10.17296 17.82498
vt 0.2700853 17.01475
vt 0.1800442 23.13656
vt -17.64837 25.33127
vt -94.43759 74.18154
vt -92.81711 63.91855
vt -87.23549 72.38102
vt -85.43495 67.15949
vt -92.18694 60.49755
vt -90.29636 51.22485
vt -66.61946 51.22485
vt -85.61497 42.49229
vt -77.86858 38.84266
vt -65.38033 37.79192
vt -58.87717 42.31219
vt -47.71392 31.41913
vt -48.34409 37.72085
vt -35.47033 36.01035
vt -34.75014 27.36794
vt -21.75707 29.05098
vt -24.74724 20.80623
vt -24.99784 20.13052
vt -20.37875 18.40898
vt -20.51614 17.28234
vt -16.74489 15.30447
vt -6.84199 11.79322
vt -9.002628 4.861418
vt 0.4501381 8.192171
vt 11.52131 0
vt 1.046874 0
vt 11.52131 2.85
vt 1.046874 2.85
vt -17.00893 0
vt -23.13141 0
vt -17.00893 2.85
vt -23.13141 2.85
vt -2.64811 0
vt -20.6111 0
vt -2.64811 2.85
vt -20.6111 2.85
vt 88.00259 0
vt 77.61246 0
vt 88.00259 2.85
vt 77.61246 2.85
vt -102.1858 0
vt -109.6096 0
vt -102.1858 2.85
vt -109.6096 2.85
vt -91.34187 0
vt -96.86513 0
vt -91.34187 2.85
vt -96.86513 2.85
vt 79.67562 0
vt 76.19707 0
vt 79.67562 2.85
vt 76.19707 2.85
vt 77.69479 0
vt 68.23132 0
vt 77.69479 2.85
vt 68.23132 2.85
vt -83.94298 0
vt -108.5993 0
vt -83.94298 2.85
vt -108.5993 2.85
vt 87.80946 0
vt 77.90124 0
vt 87.80946 2.85
vt 77.90124 2.85
vt 95.56001 0
vt 86.99693 0
vt 95.56001 2.85
vt 86.99693 2.85
vt 80.85104 0
vt 68.31866 0
vt 80.85104 2.85
vt 68.31866 2.85
vt -70.5546 0
vt -82.36047 0
vt -70.5546 2.85
vt -82.36047 2.85
vt 74.32504 0
vt 55.54435 0
vt 74.32504 2.85
vt 55.54435 2.85
vt -59.38953 0
vt -70.8798 0
vt -59.38953 2.85
vt -70.8798 2.85
vt -39.90425 0
vt -52.89114 0
vt -39.90425 2.85
vt -52.89114 2.85
vt 54.91352 0
vt 41.33149 0
vt 54.91352 2.85
vt 41.33149 2.85
vt -32.54865 0
vt -47.92676 0
vt -32.54865 2.85
vt -47.92676 2.85
vt -11.12212 6.426377E-07
vt -19.89235 0
vt -11.12212 2.850001
vt -19.89235 2.85
vt 44.21503 0
vt 32.07058 0
vt 44.21503 2.85
vt 32.07058 2.85
vt -26.7218 1.285275E-07
vt -31.70482 6.426377E-07
vt -26.7218 2.85
vt -31.70482 2.850001
vt 31.89514 0
vt 26.58498 1.285275E-07
vt 31.89514 2.85
vt 26.58498 2.85
vt 26.19592 1.285275E-07
vt 21.93748 0
vt 26.19592 2.85
vt 21.93748 2.85
vt 17.08885 0
vt 9.647544 1.285275E-07
vt 17.08885 2.85
vt 9.647544 2.85
vt -13.63121 0
vt -20.5216 0
vt -13.63121 2.85
vt -20.5216 2.85
vt 22.26682 0
vt 9.266828 0
vt 22.26682 2.85
vt 9.266828 2.85
vt 10.23136 0
vt 10.23136 2.85
vt 1.261971E-09 2.85
vt -8.204529 -2.483593E-19
vt -8.204529 2.85
vt -3.223723 0
vt -11.35654 0
vt -3.223723 2.85
vt -11.35654 2.85

vn 0 1 0
vn 0 -1 0
vn -0.0773535 0 -0.9970037
vn 0.9998919 0 0.01470665
vn 0.1221791 0 0.9925081
vn -0.9877628 0 -0.1559636
vn 0.2425351 0 0.9701426
vn 0.9453724 0 0.3259924
vn -0.9834538 0 -0.1811594
vn -0.9798415 0 -0.1997765
vn 0.6462694 0 0.7631093
vn -0.8813443 0 -0.4724746
vn -0.4262054 0 -0.9046264
vn -0.08384168 0 -0.9964791
vn 0.7549346 0 0.6558002
vn -0.3393272 0 -0.9406684
vn 0.3995852 0 0.9166961
vn 0.1317099 0 0.9912884
vn -0.2982749 0 -0.9544799
vn 0.4525501 0 0.891739
vn 0.940083 0 -0.3409456
vn -0.5959448 0 -0.8030254
vn 0.481084 0 0.8766745
vn -0.5363656 0 -0.8439858
vn -0.4644589 0 -0.8855947
vn -0.9302512 0 0.3669231
vn 0.875387 0 0.4834228
vn -0.8033118 0 -0.5955587
vn -0.4751488 0 -0.8799055
vn 0.9984938 -1.825514E-10 -0.05486459
vn 0.4427802 0 0.8966302

usemtl RiverSolura
f 25/25/1 26/26/1 27/27/1
f 25/25/1 27/27/1 24/24/1
f 15/15/1 13/13/1 14/14/1
f 15/15/1 16/16/1 13/13/1
f 16/16/1 12/12/1 13/13/1
f 16/16/1 11/11/1 12/12/1
f 16/16/1 17/17/1 11/11/1
f 17/17/1 10/10/1 11/11/1
f 10/10/1 17/17/1 9/9/1
f 17/17/1 8/8/1 9/9/1
f 18/18/1 8/8/1 17/17/1
f 8/8/1 18/18/1 7/7/1
f 7/7/1 18/18/1 19/19/1
f 20/20/1 7/7/1 19/19/1
f 20/20/1 6/6/1 7/7/1
f 21/21/1 6/6/1 20/20/1
f 21/21/1 22/22/1 6/6/1
f 22/22/1 5/5/1 6/6/1
f 22/22/1 23/23/1 5/5/1
f 23/23/1 4/4/1 5/5/1
f 23/23/1 3/3/1 4/4/1
f 24/24/1 3/3/1 23/23/1
f 27/27/1 3/3/1 24/24/1
f 27/27/1 28/28/1 3/3/1
f 28/28/1 2/2/1 3/3/1
f 29/29/1 1/1/1 2/2/1
f 28/28/1 29/29/1 2/2/1
f 56/56/2 58/57/2 55/55/2
f 56/56/2 57/1/2 58/57/2
f 54/54/2 56/56/2 55/55/2
f 54/54/2 55/55/2 30/30/2
f 33/33/2 54/54/2 30/30/2
f 52/52/2 54/54/2 33/33/2
f 53/53/2 54/54/2 52/52/2
f 51/51/2 53/53/2 52/52/2
f 51/51/2 52/52/2 50/50/2
f 48/48/2 51/51/2 50/50/2
f 48/48/2 50/50/2 49/49/2
f 47/47/2 48/48/2 49/49/2
f 45/45/2 48/48/2 47/47/2
f 46/46/2 45/45/2 47/47/2
f 46/46/2 44/44/2 45/45/2
f 45/45/2 44/44/2 43/43/2
f 40/40/2 43/43/2 44/44/2
f 42/42/2 43/43/2 40/40/2
f 42/42/2 40/40/2 41/41/2
f 39/39/2 41/41/2 40/40/2
f 39/39/2 40/40/2 37/37/2
f 38/38/2 39/39/2 37/37/2
f 35/35/2 38/38/2 37/37/2
f 35/35/2 37/37/2 36/36/2
f 34/34/2 35/35/2 36/36/2
f 33/33/2 30/30/2 32/32/2
f 30/30/2 31/31/2 32/32/2
f 26/61/3 31/59/3 30/58/3
f 30/58/3 27/60/3 26/61/3
f 25/65/4 32/63/4 31/62/4
f 31/62/4 26/64/4 25/65/4
f 24/69/5 33/67/5 32/66/5
f 32/66/5 25/68/5 24/69/5
f 13/73/6 35/71/6 34/70/6
f 34/70/6 14/72/6 13/73/6
f 14/77/7 34/75/7 36/74/7
f 36/74/7 15/76/7 14/77/7
f 15/81/8 36/79/8 37/78/8
f 37/78/8 16/80/8 15/81/8
f 12/85/9 38/83/9 35/82/9
f 35/82/9 13/84/9 12/85/9
f 11/89/10 39/87/10 38/86/10
f 38/86/10 12/88/10 11/89/10
f 16/93/11 37/91/11 40/90/11
f 40/90/11 17/92/11 16/93/11
f 10/97/12 41/95/12 39/94/12
f 39/94/12 11/96/12 10/97/12
f 9/101/13 42/99/13 41/98/13
f 41/98/13 10/100/13 9/101/13
f 8/105/14 43/103/14 42/102/14
f 42/102/14 9/104/14 8/105/14
f 17/109/15 40/107/15 44/106/15
f 44/106/15 18/108/15 17/109/15
f 7/113/16 45/111/16 43/110/16
f 43/110/16 8/112/16 7/113/16
f 18/117/17 44/115/17 46/114/17
f 46/114/17 19/116/17 18/117/17
f 19/121/18 46/119/18 47/118/18
f 47/118/18 20/120/18 19/121/18
f 6/125/19 48/123/19 45/122/19
f 45/122/19 7/124/19 6/125/19
f 20/129/20 47/127/20 49/126/20
f 49/126/20 21/128/20 20/129/20
f 21/133/21 49/131/21 50/130/21
f 50/130/21 22/132/21 21/133/21
f 5/137/22 51/135/22 48/134/22
f 48/134/22 6/136/22 5/137/22
f 22/141/23 50/139/23 52/138/23
f 52/138/23 23/140/23 22/141/23
f 4/145/24 53/143/24 51/142/24
f 51/142/24 5/144/24 4/145/24
f 3/149/25 54/147/25 53/146/25
f 53/146/25 4/148/25 3/149/25
f 23/153/26 52/151/26 33/150/26
f 33/150/26 24/152/26 23/153/26
f 27/157/27 30/155/27 55/154/27
f 55/154/27 28/156/27 27/157/27
f 2/161/28 56/159/28 54/158/28
f 54/158/28 3/160/28 2/161/28
f 1/164/29 57/1/29 56/162/29
f 56/162/29 2/163/29 1/164/29
f 29/166/30 58/165/30 57/1/30
f 57/1/30 1/164/30 29/166/30
f 28/170/31 55/168/31 58/167/31
f 58/167/31 29/169/31 28/170/31

